<svg xmlns="http://www.w3.org/2000/svg" version="1.0" width="200.000000pt" height="200.000000pt" viewBox="0 0 200.000000 200.000000" preserveAspectRatio="xMidYMid meet">
<metadata fill="#f6f6f6">
Created by potrace 1.10, written by Peter Selinger 2001-2011
</metadata>
<g transform="translate(0.000000,200.000000) scale(0.100000,-0.100000)" fill="#f6f6f6" stroke="none">
<path d="M0 1000 l0 -1000 1000 0 1000 0 0 1000 0 1000 -1000 0 -1000 0 0 -1000z m995 838 c17 0 40 3 53 7 14 5 22 3 22 -4 0 -6 -7 -11 -16 -11 -8 0 -12 -5 -9 -10 5 -8 12 -7 22 2 8 6 22 13 30 14 12 2 12 0 1 -14 -10 -12 -10 -14 0 -8 7 4 12 2 12 -4 0 -6 5 -8 10 -5 6 4 8 10 6 14 -3 4 7 7 22 6 15 -1 36 2 47 7 19 9 19 8 2 -6 -10 -8 -18 -17 -17 -21 1 -4 -2 -10 -6 -13 -4 -4 -4 -2 0 5 3 6 1 15 -6 19 -7 4 -10 4 -6 -1 4 -4 3 -14 -4 -22 -14 -17 -2 -31 14 -15 15 15 42 16 33 2 -8 -13 -2 -13 28 1 21 9 28 8 44 -8 11 -11 18 -26 15 -34 -3 -11 -1 -11 6 -1 5 7 16 10 27 6 14 -6 16 -4 11 7 -4 8 1 4 11 -9 13 -16 22 -20 31 -12 6 6 10 7 7 3 -8 -10 96 -64 109 -56 6 4 4 -2 -4 -12 -14 -17 -13 -18 4 -12 14 6 17 4 12 -8 -3 -9 -2 -13 3 -10 5 3 17 -5 26 -17 15 -23 15 -23 -22 -29 -35 -6 -34 -6 9 -4 28 1 45 -2 41 -8 -3 -5 4 -7 18 -3 13 3 18 3 12 0 -7 -3 -13 -10 -13 -15 0 -6 5 -7 12 -3 8 5 9 2 5 -9 -5 -13 -1 -17 14 -17 11 0 17 -4 14 -10 -3 -5 -2 -10 4 -10 5 0 13 -9 16 -20 4 -11 11 -17 17 -14 7 4 8 2 4 -5 -4 -6 0 -14 8 -17 10 -4 16 -19 16 -41 0 -26 8 -43 32 -66 40 -40 42 -50 12 -84 -17 -20 -20 -30 -12 -40 5 -7 14 -10 20 -7 5 3 4 12 -3 20 -7 8 -7 14 -1 14 14 0 29 -21 37 -52 5 -19 2 -29 -11 -36 -15 -9 -15 -11 5 -31 21 -21 21 -23 5 -56 -11 -25 -13 -39 -6 -48 7 -8 6 -18 -4 -31 -12 -18 -12 -22 6 -41 21 -22 19 -55 -4 -55 -6 0 -4 -5 4 -10 8 -5 10 -10 4 -10 -5 0 -11 -22 -12 -50 -3 -86 -6 -99 -16 -93 -5 4 -7 -3 -3 -16 4 -16 2 -21 -8 -18 -17 7 -58 -36 -46 -49 12 -12 -5 -54 -21 -54 -9 0 -9 -3 2 -10 8 -5 11 -10 5 -10 -5 0 -16 4 -23 9 -10 6 -10 10 2 20 10 9 13 22 9 42 -4 21 -1 30 11 35 20 8 21 38 1 54 -33 27 -70 -17 -41 -49 21 -23 18 -80 -5 -94 -15 -10 -16 -13 -2 -34 10 -14 11 -23 4 -23 -6 0 -11 7 -11 15 0 18 -16 20 -23 3 -4 -10 -8 -9 -16 2 -6 9 -11 10 -11 3 0 -24 13 -43 29 -43 13 0 13 2 2 9 -9 6 -10 11 -2 15 6 4 14 1 17 -7 2 -7 10 -14 17 -15 7 -1 21 -3 32 -4 11 -2 34 -16 50 -32 17 -16 24 -25 18 -22 -8 4 -23 -4 -35 -18 -13 -14 -36 -26 -53 -28 -25 -2 -31 1 -33 21 -3 22 -2 23 37 16 38 -6 41 -5 41 17 0 22 -4 23 -60 23 l-60 0 0 -86 0 -86 60 -26 60 -26 0 23 c0 17 -10 27 -40 39 -46 18 -55 47 -15 47 14 0 28 7 31 15 4 9 15 20 25 26 17 9 18 7 7 -16 -6 -14 -15 -25 -19 -25 -13 0 -3 -30 14 -42 23 -17 29 -54 11 -69 -21 -17 -62 -14 -84 6 -11 10 -26 15 -35 12 -10 -4 -15 -1 -15 11 0 15 -2 15 -11 2 -9 -13 -10 -13 -6 1 3 9 2 22 -3 29 -6 9 -10 7 -15 -9 -3 -12 -11 -18 -17 -15 -7 4 -8 2 -4 -4 4 -6 -1 -20 -10 -31 -16 -19 -18 -19 -30 -3 -8 10 -14 12 -14 5 0 -6 5 -15 10 -18 6 -3 10 -15 10 -26 0 -10 5 -19 11 -19 6 0 9 6 6 13 -3 8 6 27 20 43 14 17 22 22 19 12 -3 -11 0 -18 7 -18 8 0 9 -3 1 -8 -17 -11 -30 -44 -29 -69 2 -18 -1 -21 -15 -13 -10 5 -21 6 -25 2 -3 -4 -6 -2 -5 3 5 22 -1 36 -11 29 -7 -4 -25 -7 -40 -6 -16 0 -31 -3 -34 -8 -3 -5 -19 -5 -36 0 -26 8 -29 7 -18 -6 10 -12 9 -13 -6 -8 -14 6 -16 4 -10 -6 6 -9 4 -11 -4 -6 -7 5 -10 15 -6 24 5 13 3 13 -14 -2 -18 -17 -20 -17 -30 1 -9 15 -12 16 -20 3 -5 -8 -8 -17 -6 -20 2 -4 -2 -7 -10 -7 -10 0 -10 6 3 26 13 20 13 23 2 14 -14 -10 -65 -23 -100 -25 -8 0 -20 -5 -26 -10 -8 -5 -14 -3 -17 6 -4 11 -1 13 10 9 10 -4 14 -2 12 6 -3 7 -9 13 -14 13 -22 0 -46 20 -43 36 3 22 -10 42 -28 42 -10 0 -14 -11 -14 -37 0 -26 3 -34 9 -24 8 12 12 12 25 -2 19 -19 21 -30 4 -24 -7 2 -24 -5 -38 -17 -14 -11 -19 -14 -12 -6 20 24 13 34 -10 14 -12 -10 -18 -13 -14 -6 5 9 -2 11 -31 7 -27 -3 -34 -2 -23 5 11 7 6 9 -20 8 -19 -2 -41 -10 -48 -18 -12 -13 -13 -13 -8 4 5 14 3 16 -6 9 -7 -5 -21 -13 -30 -16 -13 -4 -16 -2 -12 11 5 14 3 13 -10 -2 -9 -11 -16 -14 -16 -8 0 7 -5 12 -11 12 -5 0 -7 -5 -3 -12 4 -7 3 -8 -5 -4 -6 4 -9 12 -6 17 11 16 -7 10 -22 -8 -8 -10 -12 -12 -8 -6 4 8 -1 13 -14 13 -11 0 -23 5 -26 10 -5 8 -11 7 -21 -1 -11 -9 -19 -8 -39 5 -13 9 -31 16 -40 16 -21 0 -19 20 3 21 14 0 14 2 -3 9 -17 7 -17 9 -2 9 21 1 23 21 1 21 -9 0 -29 9 -45 21 -16 11 -29 18 -29 15 0 -3 0 -8 0 -11 0 -3 1 -4 3 -3 1 1 12 -4 25 -11 16 -9 22 -21 22 -46 0 -31 3 -35 25 -35 17 0 23 -4 19 -14 -3 -9 -12 -12 -21 -9 -12 5 -14 2 -9 -8 4 -8 1 -6 -7 3 -14 18 -43 26 -33 9 7 -11 -29 -4 -60 11 -19 9 -21 15 -13 40 7 27 6 30 -11 25 -11 -3 -18 -2 -15 2 2 5 -10 8 -27 9 -19 0 -27 -2 -20 -7 8 -5 1 -8 -18 -8 -20 0 -26 3 -18 9 10 6 7 13 -12 28 -14 11 -29 20 -33 20 -5 0 -5 5 -2 10 3 6 2 10 -2 10 -5 0 -9 9 -9 19 0 11 4 18 7 15 4 -2 10 0 14 6 3 5 1 10 -4 10 -6 0 -11 21 -11 48 0 50 23 97 42 86 7 -4 8 -2 4 5 -4 6 0 14 9 17 14 6 14 8 -2 21 -10 8 -13 12 -7 9 7 -3 15 1 18 10 3 8 2 12 -4 9 -6 -3 -10 -1 -10 4 0 6 6 11 13 11 8 0 7 3 -3 9 -8 6 -18 7 -24 4 -5 -3 -6 -1 -2 5 4 8 15 8 31 2 19 -7 23 -6 19 5 -4 9 -17 13 -39 11 -19 -2 -34 -1 -33 3 2 19 -4 27 -22 28 -13 1 -18 -2 -14 -9 4 -7 2 -8 -5 -4 -15 10 -3 29 14 22 8 -3 19 3 27 11 11 15 11 16 -5 10 -10 -4 -16 -3 -13 2 3 5 -7 23 -24 41 -23 25 -28 36 -20 50 5 9 6 21 2 26 -4 5 4 0 17 -11 20 -17 21 -21 6 -23 -15 -4 -15 -5 0 -22 15 -17 19 -17 32 -4 13 13 13 17 -8 35 -13 12 -23 25 -22 30 2 5 -8 9 -22 9 -16 0 -23 4 -19 14 3 7 -2 16 -10 19 -8 3 -14 12 -12 19 5 34 18 38 112 38 l95 0 -3 58 -3 57 -47 3 c-29 2 -48 -1 -48 -7 0 -6 20 -11 45 -11 l45 0 0 -45 0 -45 -80 0 -80 0 0 45 c0 41 2 45 25 45 14 0 25 5 25 11 0 6 -14 9 -32 7 -33 -3 -33 -4 -38 -62 -3 -33 -10 -61 -17 -63 -6 -2 -10 4 -8 14 1 10 -2 23 -7 30 -6 7 -8 18 -5 25 4 8 6 7 6 -4 1 -10 5 -18 10 -18 4 0 6 11 3 25 -2 15 -9 22 -16 18 -6 -3 -1 5 10 18 12 13 20 29 17 36 -2 6 1 14 6 18 14 8 14 25 1 25 -5 0 -10 -6 -10 -14 0 -8 -4 -17 -8 -20 -4 -2 -8 6 -8 19 0 13 3 22 7 19 9 -5 19 22 19 53 0 26 23 56 35 45 4 -4 -3 10 -16 32 -21 36 -21 40 -6 51 9 7 14 14 11 17 -3 4 0 9 7 14 8 5 10 3 4 -7 -7 -12 -6 -12 7 -1 13 11 16 23 9 50 -1 2 -6 0 -11 -3 -8 -5 -7 -12 2 -23 10 -14 10 -15 -2 -5 -22 20 -21 42 1 38 11 -2 24 -7 30 -11 13 -8 9 45 -5 64 -7 9 -5 12 4 10 8 -2 19 7 25 20 8 19 30 28 58 23 4 0 7 4 7 10 0 6 -8 8 -17 5 -16 -5 -16 -5 -2 6 9 7 14 18 12 24 -5 14 66 84 81 78 6 -2 16 6 21 18 6 13 18 22 27 22 10 -1 16 2 13 6 -2 4 6 17 19 29 23 22 25 22 50 6 24 -16 26 -16 20 -1 -3 9 -10 16 -15 16 -5 0 -8 3 -7 8 1 4 -3 17 -10 29 -10 17 -9 21 3 19 8 -1 18 -6 22 -11 4 -4 2 -5 -4 -1 -16 9 -17 -10 -2 -20 7 -4 16 0 21 9 5 9 15 14 23 11 8 -4 15 -2 15 3 0 5 7 10 15 10 11 0 12 -4 4 -14 -21 -24 9 -14 36 13 18 18 34 25 54 22 16 -1 35 5 45 15 10 9 14 17 10 17 -4 0 -4 3 -1 7 4 3 16 -2 27 -12 15 -13 24 -15 31 -8 14 14 3 34 -15 27 -8 -3 -16 -1 -20 4 -3 5 13 8 34 6 22 -1 43 2 46 8 3 5 16 7 28 3 11 -4 35 -7 51 -7z m383 -92 c-7 -8 -15 -12 -17 -11 -5 6 10 25 20 25 5 0 4 -6 -3 -14z m-874 -74 c3 -5 -1 -9 -9 -9 -8 0 -12 4 -9 9 3 4 7 8 9 8 2 0 6 -4 9 -8z m-217 -274 c2 -16 0 -19 -6 -9 -5 7 -13 11 -19 7 -6 -3 -14 -1 -18 5 -4 7 -3 9 2 6 6 -3 16 -2 24 4 8 5 15 9 15 9 1 0 2 -10 2 -22z m-114 -303 c-3 -9 -8 -14 -10 -11 -3 3 -2 9 2 15 9 16 15 13 8 -4z m36 -38 c-2 -1 -13 -9 -24 -17 -19 -14 -19 -14 -6 3 7 9 18 17 24 17 6 0 8 -1 6 -3z m46 -316 c3 -5 2 -12 -3 -15 -5 -3 -9 1 -9 9 0 17 3 19 12 6z m1413 -28 c-4 -22 -22 -20 -26 1 -2 10 3 16 13 16 10 0 15 -7 13 -17z m-628 -463 c0 -5 -4 -10 -10 -10 -5 0 -10 5 -10 10 0 6 5 10 10 10 6 0 10 -4 10 -10z m567 4 c-3 -3 -12 -4 -19 -1 -8 3 -5 6 6 6 11 1 17 -2 13 -5z m-992 -63 c3 -5 2 -12 -3 -15 -5 -3 -9 1 -9 9 0 17 3 19 12 6z m416 -24 c-10 -9 -11 -8 -5 6 3 10 9 15 12 12 3 -3 0 -11 -7 -18z" fill="#f6f6f6"/>
<path d="M892 1818 c15 -11 15 -13 -4 -30 -12 -10 -18 -21 -15 -25 6 -5 47 33 47 43 0 2 -10 8 -22 14 -19 9 -20 8 -6 -2z" fill="#f6f6f6"/>
<path d="M930 1820 c0 -5 5 -10 10 -10 6 0 10 5 10 10 0 6 -4 10 -10 10 -5 0 -10 -4 -10 -10z" fill="#f6f6f6"/>
<path d="M1137 1813 c-4 -3 -7 -11 -7 -17 0 -6 5 -5 12 2 6 6 9 14 7 17 -3 3 -9 2 -12 -2z" fill="#f6f6f6"/>
<path d="M955 1785 c-33 -32 -31 -58 5 -97 23 -26 29 -29 30 -15 0 10 -7 20 -15 23 -8 4 -15 9 -15 13 0 4 7 8 15 8 8 0 15 -4 15 -9 0 -5 6 -6 13 -1 18 11 37 12 37 2 0 -5 -6 -9 -14 -9 -15 0 -28 -24 -19 -34 11 -11 23 -6 23 8 0 7 7 19 15 26 24 20 18 66 -11 89 -34 27 -50 26 -79 -4z m85 -29 c0 -2 -8 -10 -17 -17 -16 -13 -17 -12 -4 4 13 16 21 21 21 13z" fill="#f6f6f6"/>
<path d="M1087 1793 c-3 -3 1 -12 9 -20 8 -9 18 -13 21 -10 3 3 -1 13 -10 21 -8 8 -17 12 -20 9z" fill="#f6f6f6"/>
<path d="M820 1770 c0 -11 5 -20 10 -20 6 0 10 9 10 20 0 11 -4 20 -10 20 -5 0 -10 -9 -10 -20z" fill="#f6f6f6"/>
<path d="M1130 1755 c0 -8 -5 -15 -11 -15 -5 0 -8 -4 -5 -8 3 -5 -4 -16 -15 -26 -12 -10 -18 -20 -15 -23 3 -3 21 10 39 29 26 28 30 37 20 47 -10 9 -13 8 -13 -4z" fill="#f6f6f6"/>
<path d="M1221 1752 c-17 -14 -18 -19 -6 -29 10 -10 16 -9 27 4 11 15 11 16 -7 9 -16 -6 -18 -5 -7 5 9 10 15 10 24 1 9 -9 7 -16 -7 -32 -19 -21 -8 -29 13 -8 17 17 15 55 -3 61 -7 3 -23 -2 -34 -11z" fill="#f6f6f6"/>
<path d="M724 1745 c-22 -17 -12 -20 16 -5 15 8 24 6 40 -10 11 -11 18 -25 14 -31 -4 -6 -12 -2 -21 10 -8 12 -19 21 -24 21 -6 0 2 -15 16 -34 14 -19 25 -38 24 -42 -4 -22 3 -33 21 -39 26 -8 50 11 49 39 l0 21 -9 -21 c-4 -12 -16 -24 -26 -28 -14 -5 -15 -4 -5 8 15 18 6 36 -17 36 -12 0 -13 3 -4 12 17 17 15 42 -6 61 -23 21 -42 21 -68 2z" fill="#f6f6f6"/>
<path d="M890 1746 c0 -2 7 -9 15 -16 13 -11 14 -10 9 4 -5 14 -24 23 -24 12z" fill="#f6f6f6"/>
<path d="M1083 1735 c0 -8 4 -12 9 -9 4 3 8 9 8 15 0 5 -4 9 -8 9 -5 0 -9 -7 -9 -15z" fill="#f6f6f6"/>
<path d="M820 1730 c0 -5 5 -10 10 -10 6 0 10 5 10 10 0 6 -4 10 -10 10 -5 0 -10 -4 -10 -10z" fill="#f6f6f6"/>
<path d="M841 1714 c-14 -32 -14 -34 4 -34 8 0 12 6 9 14 -9 24 14 27 30 4 9 -12 19 -19 22 -15 8 8 -12 34 -36 47 -13 7 -20 3 -29 -16z" fill="#f6f6f6"/>
<path d="M650 1709 c0 -6 -9 -8 -20 -4 -11 3 -20 2 -20 -3 0 -6 6 -12 13 -15 9 -3 8 -8 -3 -22 -13 -17 -13 -18 1 -13 9 4 21 2 27 -4 8 -8 15 -8 25 0 8 7 16 10 19 7 2 -3 5 8 5 24 0 20 -4 28 -14 24 -7 -3 -13 0 -13 6 0 6 -4 11 -10 11 -5 0 -10 -5 -10 -11z m20 -29 c0 -21 -15 -27 -25 -10 -7 12 2 30 16 30 5 0 9 -9 9 -20z" fill="#f6f6f6"/>
<path d="M1140 1701 c-7 -15 -5 -24 8 -41 32 -40 85 -4 62 41 -14 25 -56 25 -70 0z" fill="#f6f6f6"/>
<path d="M1325 1710 c-3 -5 -12 -7 -20 -3 -8 3 -15 0 -15 -6 0 -6 5 -11 10 -11 6 0 10 -7 10 -16 0 -8 -4 -12 -10 -9 -5 3 -10 1 -10 -4 0 -6 -7 -11 -16 -11 -8 0 -13 4 -10 8 3 5 -1 9 -8 9 -8 0 -12 -6 -9 -14 6 -15 31 -17 53 -3 9 6 19 5 28 -2 15 -13 36 4 47 39 5 18 3 22 -9 17 -9 -3 -16 -1 -16 5 0 14 -17 15 -25 1z m29 -18 c2 -4 1 -14 -4 -22 -7 -11 -12 -12 -21 -3 -6 6 -8 16 -5 22 8 13 23 14 30 3z" fill="#f6f6f6"/>
<path d="M1385 1664 c-15 -23 -15 -27 -1 -43 9 -10 16 -23 16 -29 0 -18 14 -14 34 9 18 22 18 22 -3 16 -11 -3 -19 -1 -15 4 3 5 -2 9 -11 9 -9 0 -15 5 -13 12 6 18 28 21 28 4 0 -21 26 -21 34 0 4 9 5 18 4 18 -2 1 -15 7 -30 13 -24 11 -28 9 -43 -13z" fill="#f6f6f6"/>
<path d="M547 1674 c-8 -8 1 -24 14 -24 5 0 9 7 9 15 0 15 -12 20 -23 9z" fill="#f6f6f6"/>
<path d="M874 1666 c1 -8 5 -18 8 -22 4 -3 5 1 4 10 -1 8 -5 18 -8 22 -4 3 -5 -1 -4 -10z" fill="#f6f6f6"/>
<path d="M720 1655 c0 -8 5 -15 10 -15 6 0 10 7 10 15 0 8 -4 15 -10 15 -5 0 -10 -7 -10 -15z" fill="#f6f6f6"/>
<path d="M910 1655 c-7 -9 -11 -18 -8 -20 3 -3 11 1 18 10 7 9 11 18 8 20 -3 3 -11 -1 -18 -10z" fill="#f6f6f6"/>
<path d="M1060 1663 c0 -13 29 -38 35 -31 3 3 -4 13 -15 23 -11 10 -20 13 -20 8z" fill="#f6f6f6"/>
<path d="M1116 1651 c-4 -5 -2 -12 3 -15 5 -4 12 -2 15 3 4 5 2 12 -3 15 -5 4 -12 2 -15 -3z" fill="#f6f6f6"/>
<path d="M990 1640 l35 -7 -33 -2 c-41 -1 -33 -21 9 -21 22 0 29 5 29 20 0 17 -6 20 -37 19 l-38 -2 35 -7z" fill="#f6f6f6"/>
<path d="M1220 1639 c0 -5 5 -7 10 -4 6 3 10 8 10 11 0 2 -4 4 -10 4 -5 0 -10 -5 -10 -11z" fill="#f6f6f6"/>
<path d="M600 1631 l-105 -6 0 -70 0 -70 53 -3 c30 -2 50 -7 47 -13 -4 -5 -1 -9 4 -9 6 0 11 5 11 10 0 6 14 10 30 10 17 0 30 5 30 10 0 6 -33 10 -80 10 l-80 0 0 55 0 55 95 0 c60 0 95 4 95 11 0 5 5 7 12 3 7 -4 8 -3 4 4 -4 7 -8 11 -9 10 -1 -1 -49 -4 -107 -7z" fill="#f6f6f6"/>
<path d="M1172 1600 c0 -19 2 -27 5 -17 2 9 2 25 0 35 -3 9 -5 1 -5 -18z" fill="#f6f6f6"/>
<path d="M724 1606 c-3 -9 -3 -31 0 -49 4 -24 11 -33 26 -33 25 0 48 51 33 75 -14 22 -52 26 -59 7z m41 -42 c-10 -7 -23 -11 -28 -7 -6 3 -1 10 11 14 12 5 22 14 23 21 0 9 2 9 6 -1 3 -8 -2 -20 -12 -27z" fill="#f6f6f6"/>
<path d="M865 1600 c-13 -15 -22 -17 -36 -9 -11 5 -20 7 -20 4 -5 -20 -4 -32 3 -47 10 -20 28 -24 28 -7 0 5 -6 7 -12 3 -10 -6 -10 -5 -1 8 7 8 9 19 5 23 -4 5 -2 5 5 1 6 -3 24 5 40 19 15 13 23 25 17 25 -6 0 -19 -9 -29 -20z" fill="#f6f6f6"/>
<path d="M1100 1611 c0 -6 10 -17 23 -26 19 -13 20 -17 7 -25 -11 -7 -19 -5 -27 7 -7 9 -16 13 -20 9 -4 -4 -1 -11 7 -16 13 -9 7 -14 -12 -11 -4 0 -5 -6 -1 -15 5 -13 7 -13 14 -2 10 16 31 18 41 3 5 -6 14 -3 25 8 17 17 17 18 0 11 -12 -4 -16 -2 -12 8 3 8 -3 24 -13 36 -21 23 -32 28 -32 13z" fill="#f6f6f6"/>
<path d="M1240 1608 c-17 -6 -20 -16 -20 -72 0 -36 5 -68 10 -71 16 -10 100 -13 106 -3 3 4 -2 8 -10 8 -13 0 -16 12 -16 59 l0 60 -37 4 c-34 3 -32 4 11 5 27 1 46 5 42 9 -10 10 -60 11 -86 1z m54 -45 c9 -21 -16 -46 -37 -37 -17 6 -23 35 -10 47 12 13 41 7 47 -10z m-19 -63 c18 -8 18 -9 -5 -10 l-25 -2 25 -9 25 -8 -25 2 c-15 1 -26 9 -28 20 -4 19 3 20 33 7z" fill="#f6f6f6"/>
<path d="M1255 1559 c-10 -15 1 -23 20 -15 9 3 13 10 10 16 -8 13 -22 13 -30 -1z" fill="#f6f6f6"/>
<path d="M1470 1610 c0 -5 9 -10 19 -10 11 0 23 5 26 10 4 6 -5 10 -19 10 -14 0 -26 -4 -26 -10z" fill="#f6f6f6"/>
<path d="M920 1600 c0 -5 5 -10 10 -10 6 0 10 5 10 10 0 6 -4 10 -10 10 -5 0 -10 -4 -10 -10z" fill="#f6f6f6"/>
<path d="M1050 1600 c0 -5 5 -10 10 -10 6 0 10 5 10 10 0 6 -4 10 -10 10 -5 0 -10 -4 -10 -10z" fill="#f6f6f6"/>
<path d="M527 1593 c-3 -5 -5 -25 -5 -45 l0 -38 64 0 64 0 0 35 c0 24 5 35 15 35 11 0 15 -12 15 -47 -1 -69 -15 -83 -84 -83 -31 0 -56 -4 -56 -10 0 -6 27 -10 60 -10 36 0 60 4 60 11 0 5 4 8 9 4 5 -3 12 -1 16 5 8 13 35 13 35 0 0 -5 -7 -10 -15 -10 -8 0 -15 -4 -15 -10 0 -13 17 -13 25 0 4 6 11 8 16 4 6 -3 5 -12 -3 -21 -12 -14 -11 -15 8 -3 l21 13 -20 24 c-11 12 -27 23 -34 23 -9 0 -13 18 -13 65 l0 65 -79 0 c-44 0 -82 -3 -84 -7z m47 -32 c3 -5 -1 -14 -8 -20 -16 -13 -32 2 -21 19 8 12 22 13 29 1z m36 -5 c0 -3 -4 -8 -10 -11 -5 -3 -10 -1 -10 4 0 6 5 11 10 11 6 0 10 -2 10 -4z" fill="#f6f6f6"/>
<path d="M988 1593 c7 -3 16 -2 19 1 4 3 -2 6 -13 5 -11 0 -14 -3 -6 -6z" fill="#f6f6f6"/>
<path d="M1346 1591 c-4 -5 -2 -12 3 -15 5 -4 12 -2 15 3 4 5 2 12 -3 15 -5 4 -12 2 -15 -3z" fill="#f6f6f6"/>
<path d="M434 1566 c-8 -8 -7 -15 0 -22 8 -8 15 -7 22 0 8 8 7 15 0 22 -8 8 -15 7 -22 0z" fill="#f6f6f6"/>
<path d="M890 1570 c0 -5 5 -10 10 -10 6 0 10 5 10 10 0 6 -4 10 -10 10 -5 0 -10 -4 -10 -10z" fill="#f6f6f6"/>
<path d="M960 1570 c0 -5 4 -10 8 -10 5 0 17 -7 28 -15 15 -12 15 -14 2 -9 -9 3 -24 1 -34 -4 -21 -12 -56 -4 -47 11 3 6 1 7 -5 3 -18 -11 -15 -16 21 -31 28 -12 34 -11 50 2 11 11 17 12 17 4 0 -7 4 -10 9 -6 5 3 16 -1 23 -9 13 -12 16 -11 28 8 11 18 11 19 -1 9 -12 -10 -22 -5 -51 23 -38 36 -48 41 -48 24z" fill="#f6f6f6"/>
<path d="M1010 1570 c0 -5 5 -10 10 -10 6 0 10 5 10 10 0 6 -4 10 -10 10 -5 0 -10 -4 -10 -10z" fill="#f6f6f6"/>
<path d="M850 1560 c-9 -6 -10 -10 -3 -10 6 0 15 5 18 10 8 12 4 12 -15 0z" fill="#f6f6f6"/>
<path d="M940 1550 c0 -5 5 -10 11 -10 5 0 7 5 4 10 -3 6 -8 10 -11 10 -2 0 -4 -4 -4 -10z" fill="#f6f6f6"/>
<path d="M1040 1550 c0 -5 5 -10 10 -10 6 0 10 5 10 10 0 6 -4 10 -10 10 -5 0 -10 -4 -10 -10z" fill="#f6f6f6"/>
<path d="M1172 1542 c-13 -10 -20 -21 -16 -25 12 -12 24 -8 24 9 0 8 4 13 8 10 5 -3 9 1 9 9 0 8 -1 15 -1 15 -1 0 -11 -8 -24 -18z" fill="#f6f6f6"/>
<path d="M1356 1553 c-3 -4 -6 -35 -6 -70 l0 -63 110 0 c74 0 110 -4 110 -11 0 -6 -6 -9 -13 -6 -8 3 -14 -1 -14 -9 0 -7 6 -15 14 -18 7 -3 13 -19 13 -35 0 -16 5 -33 12 -37 6 -4 8 -3 5 3 -4 6 -7 34 -8 62 -1 29 -5 54 -9 56 -4 2 -5 27 -4 55 l3 50 -96 0 c-53 0 -94 -2 -91 -5 3 -3 42 -6 86 -6 l82 -1 0 -44 0 -44 -90 0 -89 0 0 55 1 55 100 0 c54 0 97 4 94 8 -6 10 -201 14 -210 5z" fill="#f6f6f6"/>
<path d="M860 1540 c-12 -7 -10 -9 8 -7 12 0 22 5 22 9 0 11 -12 10 -30 -2z" fill="#f6f6f6"/>
<path d="M385 1532 c-6 -6 4 -22 15 -22 4 0 10 6 13 13 5 13 -17 20 -28 9z" fill="#f6f6f6"/>
<path d="M786 1531 c-4 -5 -2 -12 3 -15 5 -4 12 -2 15 3 4 5 2 12 -3 15 -5 4 -12 2 -15 -3z" fill="#f6f6f6"/>
<path d="M854 1507 c11 -7 34 -24 51 -39 33 -28 65 -37 65 -18 0 6 -4 10 -9 10 -4 0 -25 14 -46 30 -21 17 -47 30 -59 29 -20 0 -20 -1 -2 -12z" fill="#f6f6f6"/>
<path d="M1104 1507 c-54 -31 -164 -111 -160 -115 12 -12 195 101 196 121 0 10 -12 9 -36 -6z" fill="#f6f6f6"/>
<path d="M716 1503 c-9 -10 -7 -25 3 -19 5 3 14 -1 21 -10 10 -11 15 -12 20 -3 4 6 13 10 20 7 9 -3 8 -9 -4 -21 -19 -18 -17 -21 8 -11 9 3 13 10 10 15 -3 5 -1 9 5 9 5 0 12 -6 14 -12 4 -10 6 -10 6 0 1 7 5 11 10 8 5 -4 8 2 6 11 -2 10 -4 22 -4 26 -1 5 -6 5 -11 2 -6 -4 -8 -11 -4 -16 7 -11 -18 -8 -27 4 -7 10 -65 18 -73 10z" fill="#f6f6f6"/>
<path d="M1167 1502 c-16 -7 -16 -9 -2 -30 22 -30 31 -28 31 8 0 32 -1 33 -29 22z" fill="#f6f6f6"/>
<path d="M1390 1485 c0 -22 4 -25 35 -25 31 0 35 3 35 25 0 22 -4 25 -35 25 -31 0 -35 -3 -35 -25z m42 0 c0 -5 -5 -11 -11 -13 -6 -2 -11 4 -11 13 0 9 5 15 11 13 6 -2 11 -8 11 -13z" fill="#f6f6f6"/>
<path d="M1594 1496 c-8 -8 -7 -15 2 -23 9 -9 15 -9 22 0 14 17 -9 38 -24 23z" fill="#f6f6f6"/>
<path d="M411 1487 c-12 -15 -5 -47 10 -47 5 0 9 -18 9 -40 0 -24 -5 -40 -12 -40 -9 0 -9 -3 -1 -11 7 -7 18 -9 26 -6 11 4 13 15 7 46 -5 30 -4 44 7 53 8 6 13 21 11 32 -4 25 -40 33 -57 13z m40 -22 c-1 -15 -24 -12 -29 3 -3 9 2 13 12 10 10 -1 17 -7 17 -13z" fill="#f6f6f6"/>
<path d="M1488 1493 c12 -2 30 -2 40 0 9 3 -1 5 -23 4 -22 0 -30 -2 -17 -4z" fill="#f6f6f6"/>
<path d="M974 1479 c12 -8 25 -8 40 -1 18 9 16 11 -19 11 -33 0 -37 -1 -21 -10z" fill="#f6f6f6"/>
<path d="M1470 1470 c0 -5 16 -10 35 -10 19 0 35 5 35 10 0 6 -16 10 -35 10 -19 0 -35 -4 -35 -10z" fill="#f6f6f6"/>
<path d="M340 1452 c-8 -9 -15 -20 -15 -23 0 -4 -3 -11 -7 -15 -12 -11 -9 -26 2 -19 6 4 17 2 25 -5 10 -8 15 -8 20 0 4 6 14 9 22 6 11 -5 13 -2 9 10 -3 8 -6 22 -6 30 0 8 -6 14 -14 14 -8 0 -16 4 -18 9 -1 5 -10 2 -18 -7z m30 -26 c0 -8 -4 -17 -9 -21 -12 -7 -24 12 -16 25 9 15 25 12 25 -4z" fill="#f6f6f6"/>
<path d="M490 1461 c0 -6 5 -13 10 -16 6 -3 10 1 10 9 0 9 -4 16 -10 16 -5 0 -10 -4 -10 -9z" fill="#f6f6f6"/>
<path d="M774 1412 c-79 -52 -139 -119 -177 -200 -30 -62 -32 -75 -32 -172 0 -99 2 -109 34 -174 39 -79 114 -159 189 -199 54 -29 82 -30 82 -2 0 10 5 13 12 9 7 -4 8 -3 4 5 -4 6 -11 9 -16 6 -4 -3 -13 2 -20 10 -13 15 -30 12 -30 -6 0 -6 4 -8 8 -5 10 6 38 -11 30 -19 -9 -9 -89 26 -82 36 3 5 -1 6 -9 4 -21 -9 -124 107 -155 172 -24 52 -27 70 -27 163 0 99 2 110 32 171 41 82 118 161 194 197 32 15 58 30 58 35 2 18 -40 4 -95 -31z" fill="#f6f6f6"/>
<path d="M1127 1444 c-3 -4 17 -18 46 -32 74 -37 152 -119 190 -199 29 -63 32 -76 32 -173 0 -97 -3 -110 -31 -170 -40 -83 -93 -143 -158 -180 -57 -34 -78 -38 -69 -14 4 10 8 12 12 5 5 -7 15 -4 29 9 11 11 26 20 31 20 5 0 13 4 16 10 7 11 -23 2 -42 -12 -7 -6 -17 -7 -22 -4 -5 4 -16 -3 -24 -15 -11 -15 -21 -19 -39 -14 -17 5 -14 1 11 -15 30 -19 37 -20 68 -8 48 20 185 139 178 155 -2 8 -1 12 4 8 15 -8 51 77 45 105 -4 17 -3 21 4 12 7 -11 10 -9 15 7 3 12 1 19 -4 15 -5 -3 -9 5 -9 18 0 16 3 19 9 10 5 -8 8 12 8 52 -1 38 -5 62 -10 59 -6 -4 -7 5 -3 21 3 14 3 26 -2 26 -4 0 -9 11 -10 24 -2 27 -49 112 -94 168 -28 36 -142 118 -164 118 -6 0 -13 -3 -17 -6z m263 -572 c0 -5 -7 -17 -15 -28 -14 -18 -14 -17 -4 9 12 27 19 34 19 19z" fill="#f6f6f6"/>
<path d="M1418 1443 c23 -2 61 -2 85 0 23 2 4 4 -43 4 -47 0 -66 -2 -42 -4z" fill="#f6f6f6"/>
<path d="M1611 1436 c-15 -18 -6 -35 35 -70 48 -40 55 -25 8 18 -30 28 -36 38 -27 47 13 13 12 13 26 -31 4 -12 6 -12 12 3 16 39 -27 66 -54 33z" fill="#f6f6f6"/>
<path d="M1230 1426 c7 -7 13 -7 20 0 6 6 3 10 -10 10 -13 0 -16 -4 -10 -10z" fill="#f6f6f6"/>
<path d="M1295 1427 c-24 -27 -26 -37 -9 -30 12 4 15 3 10 -6 -5 -7 10 -30 38 -58 25 -25 43 -49 41 -53 -3 -4 1 -10 8 -13 8 -3 14 4 15 20 1 14 -2 21 -8 18 -6 -3 -10 -2 -10 3 0 6 7 13 16 16 8 3 12 10 9 16 -9 15 -25 12 -25 -4 0 -26 -17 -26 -29 1 -10 21 -9 24 3 20 10 -4 12 0 9 14 -6 23 -23 25 -23 3 0 -11 -5 -14 -16 -10 -9 3 -18 6 -20 6 -2 0 -4 4 -4 10 0 5 7 6 17 3 10 -4 14 -2 10 4 -4 6 -1 14 5 17 7 3 3 3 -9 0 -13 -3 -23 -1 -23 5 0 6 5 11 10 11 6 0 10 5 10 10 0 13 -13 12 -25 -3z" fill="#f6f6f6"/>
<path d="M665 1419 c-4 -6 -5 -11 -4 -12 2 -1 14 -8 26 -14 19 -11 21 -10 17 2 -4 8 -13 15 -21 15 -8 0 -11 5 -8 10 3 6 4 10 1 10 -3 0 -8 -5 -11 -11z" fill="#f6f6f6"/>
<path d="M607 1413 c-10 -10 -8 -25 2 -18 6 3 14 -2 19 -11 7 -12 15 -15 28 -9 15 6 16 8 4 12 -8 3 -22 12 -31 19 -9 8 -19 11 -22 7z" fill="#f6f6f6"/>
<path d="M865 1407 c-12 -9 -14 -16 -7 -21 15 -9 59 3 73 20 9 11 6 14 -18 14 -16 0 -37 -6 -48 -13z" fill="#f6f6f6"/>
<path d="M1060 1411 c0 -12 69 -35 78 -26 4 4 -2 13 -12 21 -22 16 -66 19 -66 5z" fill="#f6f6f6"/>
<path d="M509 1408 c-12 -45 4 -88 34 -88 8 0 7 4 -1 12 -19 19 -14 44 11 61 22 16 22 16 -10 16 -18 1 -33 0 -34 -1z" fill="#f6f6f6"/>
<path d="M1425 1399 c-22 -5 -14 -7 34 -8 35 0 61 2 58 5 -10 10 -57 11 -92 3z" fill="#f6f6f6"/>
<path d="M460 1389 c0 -5 5 -7 10 -4 6 3 10 8 10 11 0 2 -4 4 -10 4 -5 0 -10 -5 -10 -11z" fill="#f6f6f6"/>
<path d="M555 1376 c-19 -14 -19 -15 -1 -35 27 -30 36 -26 36 14 0 38 -6 42 -35 21z m25 -26 c0 -5 -7 -7 -15 -4 -8 4 -15 8 -15 10 0 2 7 4 15 4 8 0 15 -4 15 -10z" fill="#f6f6f6"/>
<path d="M808 1379 c-10 -6 -18 -14 -18 -19 0 -13 21 -12 40 0 22 14 0 32 -22 19z" fill="#f6f6f6"/>
<path d="M1154 1379 c-7 -12 12 -29 34 -29 19 0 14 18 -7 30 -14 7 -22 7 -27 -1z" fill="#f6f6f6"/>
<path d="M949 1369 c-103 -16 -190 -83 -234 -181 -75 -165 -7 -338 162 -415 48 -22 65 -25 137 -21 96 5 148 29 210 99 70 76 96 168 76 266 -34 170 -185 278 -351 252z m88 -45 c3 -8 16 -14 29 -14 21 0 24 -5 24 -35 0 -33 2 -35 33 -35 30 1 31 2 13 15 -21 16 -15 48 8 39 8 -3 20 -19 26 -35 7 -16 20 -29 30 -29 34 0 43 -25 26 -75 -20 -57 -20 -55 2 -55 50 0 59 -71 13 -98 -29 -16 -29 -17 -13 -44 19 -33 8 -61 -26 -66 -12 -2 -27 -18 -37 -38 -17 -37 -32 -43 -42 -19 -3 9 2 22 13 30 18 13 17 14 -13 15 -31 0 -33 -2 -33 -35 0 -28 -4 -36 -25 -41 -13 -3 -29 -12 -36 -20 -15 -18 -56 -18 -66 0 -4 8 -17 15 -28 17 -15 3 -21 13 -23 41 -3 33 -6 36 -38 40 -38 4 -45 -6 -14 -22 11 -6 17 -16 14 -25 -10 -26 -33 -16 -48 20 -10 24 -22 35 -35 35 -11 0 -25 9 -31 19 -10 21 -4 51 11 51 20 0 7 26 -21 42 -50 28 -38 98 17 98 20 0 23 4 17 28 -4 15 -13 34 -20 43 -8 8 -14 20 -14 26 0 14 25 34 45 37 9 1 25 17 36 35 17 28 22 31 35 20 14 -11 13 -15 -8 -32 -17 -14 -19 -17 -5 -13 10 3 27 6 38 6 14 0 19 7 19 30 0 21 5 30 16 30 9 0 27 9 40 19 26 20 62 18 71 -5z" fill="#f6f6f6"/>
<path d="M983 1304 c-8 -20 8 -36 26 -25 15 10 8 41 -9 41 -6 0 -13 -7 -17 -16z" fill="#f6f6f6"/>
<path d="M940 1260 c1 -37 19 -70 39 -70 8 0 6 8 -4 23 -8 13 -12 26 -9 30 3 3 -1 16 -10 29 -16 22 -16 22 -16 -12z" fill="#f6f6f6"/>
<path d="M1043 1279 c-7 -7 -13 -21 -13 -32 0 -10 -5 -27 -10 -38 -8 -15 -7 -19 4 -19 16 0 40 60 34 86 -2 12 -5 13 -15 3z" fill="#f6f6f6"/>
<path d="M986 1235 c4 -8 10 -15 15 -15 5 0 9 7 9 15 0 8 -7 15 -15 15 -9 0 -12 -6 -9 -15z" fill="#f6f6f6"/>
<path d="M853 1222 c-13 -2 -23 -10 -23 -18 0 -8 -5 -23 -12 -34 -10 -16 -9 -23 12 -45 14 -15 34 -25 52 -25 41 0 37 28 -4 32 -26 2 -34 8 -36 27 -5 32 23 54 49 40 11 -5 19 -18 19 -29 0 -26 14 -32 27 -11 20 32 -32 72 -84 63z" fill="#f6f6f6"/>
<path d="M1095 1210 c-33 -13 -50 -39 -37 -52 9 -9 15 -8 25 6 9 12 23 17 42 14 39 -4 46 -40 15 -73 -16 -17 -18 -25 -9 -30 7 -5 19 2 30 16 28 36 32 58 16 77 -7 9 -17 25 -20 35 -7 18 -29 21 -62 7z" fill="#f6f6f6"/>
<path d="M780 1194 c0 -9 5 -14 12 -12 18 6 21 28 4 28 -9 0 -16 -7 -16 -16z" fill="#f6f6f6"/>
<path d="M1187 1204 c-8 -8 1 -24 14 -24 5 0 9 7 9 15 0 15 -12 20 -23 9z" fill="#f6f6f6"/>
<path d="M865 1180 c-4 -6 -3 -16 3 -22 6 -6 12 -6 17 2 4 6 3 16 -3 22 -6 6 -12 6 -17 -2z" fill="#f6f6f6"/>
<path d="M977 1159 c-25 -14 -47 -63 -47 -102 0 -38 18 -97 29 -97 17 0 18 13 5 51 -15 43 -10 84 14 112 21 24 29 22 48 -15 27 -52 14 -102 -40 -157 -41 -42 -46 -51 -44 -89 1 -35 4 -40 15 -30 8 6 12 20 9 31 -3 13 7 31 31 56 48 49 65 85 65 138 0 68 -46 123 -85 102z" fill="#f6f6f6"/>
<path d="M1096 1139 c-8 -12 -12 -28 -9 -36 4 -11 10 -10 29 8 13 12 24 28 24 36 0 20 -27 15 -44 -8z" fill="#f6f6f6"/>
<path d="M822 1098 c2 -7 -3 -12 -10 -10 -8 1 -11 -2 -7 -8 3 -6 10 -8 15 -5 4 3 10 1 12 -4 1 -5 8 -3 14 3 9 10 7 16 -7 24 -15 10 -19 9 -17 0z" fill="#f6f6f6"/>
<path d="M985 1100 c4 -6 11 -8 16 -5 14 9 11 15 -7 15 -8 0 -12 -5 -9 -10z" fill="#f6f6f6"/>
<path d="M754 1066 c-9 -24 4 -48 23 -44 12 2 18 12 18 28 0 29 -32 41 -41 16z" fill="#f6f6f6"/>
<path d="M978 1052 c-3 -19 -1 -29 6 -25 5 4 7 0 3 -10 -4 -11 -2 -14 9 -10 7 3 14 10 15 17 0 6 2 19 4 28 2 10 -1 20 -6 24 -5 3 -9 -1 -9 -8 0 -10 -2 -10 -9 1 -6 9 -10 4 -13 -17z" fill="#f6f6f6"/>
<path d="M1194 1066 c-9 -24 4 -48 23 -44 12 2 18 12 18 28 0 29 -32 41 -41 16z" fill="#f6f6f6"/>
<path d="M845 1039 c-37 -33 -44 -62 -20 -93 11 -15 12 -23 3 -33 -9 -11 -7 -12 13 -6 13 5 33 8 44 8 22 -1 45 12 45 26 0 4 -13 3 -29 -2 -73 -26 -99 51 -30 87 16 8 29 21 29 29 0 23 -16 18 -55 -16z" fill="#f6f6f6"/>
<path d="M1090 1057 c0 -7 13 -21 29 -30 62 -36 47 -93 -22 -84 -31 4 -37 3 -33 -10 3 -8 6 -17 6 -19 0 -2 20 -4 45 -4 38 0 45 3 45 20 0 10 8 23 18 29 16 9 16 11 -1 44 -10 18 -31 41 -47 50 -34 20 -40 21 -40 4z" fill="#f6f6f6"/>
<path d="M1085 1001 c-9 -28 1 -41 31 -41 30 0 30 10 0 39 -24 23 -24 23 -31 2z" fill="#f6f6f6"/>
<path d="M867 992 c-24 -26 -21 -32 11 -32 35 0 41 6 35 31 -7 24 -25 24 -46 1z" fill="#f6f6f6"/>
<path d="M785 940 c-4 -6 -3 -16 3 -22 6 -6 12 -6 17 2 4 6 3 16 -3 22 -6 6 -12 6 -17 -2z" fill="#f6f6f6"/>
<path d="M1185 940 c-7 -12 2 -30 16 -30 12 0 12 27 0 35 -5 3 -12 1 -16 -5z" fill="#f6f6f6"/>
<path d="M1027 914 c-9 -15 7 -77 21 -82 17 -5 16 49 -1 73 -8 10 -17 14 -20 9z" fill="#f6f6f6"/>
<path d="M986 875 c-3 -9 0 -15 9 -15 16 0 20 16 6 24 -5 3 -11 -1 -15 -9z" fill="#f6f6f6"/>
<path d="M987 834 c-14 -15 -6 -34 14 -34 14 0 19 5 17 17 -3 18 -20 27 -31 17z" fill="#f6f6f6"/>
<path d="M1600 1365 c-18 -21 -3 -32 16 -13 10 9 12 18 6 22 -5 3 -15 -1 -22 -9z" fill="#f6f6f6"/>
<path d="M1420 1360 c-13 -8 -13 -11 3 -27 16 -16 17 -16 17 0 0 9 5 17 10 17 6 0 10 5 10 10 0 13 -20 13 -40 0z" fill="#f6f6f6"/>
<path d="M310 1295 l0 -65 40 0 40 0 0 65 0 65 -40 0 -40 0 0 -65z m55 35 c-3 -5 -15 -10 -26 -10 -11 0 -17 5 -14 10 3 6 15 10 26 10 11 0 17 -4 14 -10z m3 -27 c-10 -2 -26 -2 -35 0 -10 3 -2 5 17 5 19 0 27 -2 18 -5z m-3 -23 c-28 -12 -45 -12 -45 0 0 6 15 10 33 9 27 0 29 -2 12 -9z m-12 -27 c-7 -2 -19 -2 -25 0 -7 3 -2 5 12 5 14 0 19 -2 13 -5z" fill="#f6f6f6"/>
<path d="M611 1350 c4 -29 -12 -51 -32 -45 -13 4 -30 -3 -52 -21 -17 -15 -24 -25 -14 -21 14 5 20 2 24 -13 4 -17 23 -29 23 -16 0 2 3 12 7 22 4 12 3 15 -5 10 -19 -12 -35 3 -21 20 14 17 33 19 23 2 -4 -6 -3 -8 4 -4 5 3 12 0 15 -6 3 -10 8 -10 21 1 9 8 15 19 13 25 -4 11 17 37 29 35 3 0 8 2 11 4 3 3 -3 4 -14 3 -10 -2 -22 2 -26 8 -5 7 -7 6 -6 -4z" fill="#f6f6f6"/>
<path d="M1474 1329 c3 -18 13 -40 22 -50 12 -14 13 -17 1 -22 -8 -3 -17 -17 -19 -31 -5 -25 -3 -26 39 -26 24 0 42 -4 39 -8 -3 -5 1 -9 9 -9 13 0 13 3 0 17 -8 9 -15 23 -15 31 -1 8 -14 30 -30 49 -36 42 -37 50 -5 50 25 0 33 -14 15 -25 -6 -4 -7 -11 -4 -17 8 -13 33 29 29 51 -1 11 -15 17 -45 19 l-43 3 7 -32z m59 14 c-7 -2 -21 -2 -30 0 -10 3 -4 5 12 5 17 0 24 -2 18 -5z m7 -125 c0 -4 -11 -8 -25 -8 -27 0 -33 18 -13 38 10 10 15 9 25 -5 7 -9 13 -20 13 -25z" fill="#f6f6f6"/>
<path d="M750 1335 c0 -8 7 -15 15 -15 8 0 15 7 15 15 0 8 -7 15 -15 15 -8 0 -15 -7 -15 -15z" fill="#f6f6f6"/>
<path d="M1217 1344 c-8 -8 1 -24 14 -24 5 0 9 7 9 15 0 15 -12 20 -23 9z" fill="#f6f6f6"/>
<path d="M1630 1330 c0 -5 5 -10 10 -10 6 0 10 5 10 10 0 6 -4 10 -10 10 -5 0 -10 -4 -10 -10z" fill="#f6f6f6"/>
<path d="M1691 1317 c-16 -16 -14 -32 2 -18 10 7 17 7 24 0 6 -6 13 -7 16 -2 10 15 -29 33 -42 20z" fill="#f6f6f6"/>
<path d="M430 1300 c-27 -27 -25 -55 6 -79 25 -19 45 -19 72 2 19 15 14 29 -7 17 -29 -15 -31 -13 -31 25 0 37 8 43 28 23 6 -6 15 -8 19 -4 10 10 -25 36 -49 36 -10 0 -27 -9 -38 -20z" fill="#f6f6f6"/>
<path d="M1505 1310 c3 -5 8 -10 11 -10 2 0 4 5 4 10 0 6 -5 10 -11 10 -5 0 -7 -4 -4 -10z" fill="#f6f6f6"/>
<path d="M1600 1310 c0 -5 5 -10 10 -10 6 0 10 5 10 10 0 6 -4 10 -10 10 -5 0 -10 -4 -10 -10z" fill="#f6f6f6"/>
<path d="M715 1300 c-8 -13 4 -32 16 -25 12 8 12 35 0 35 -6 0 -13 -4 -16 -10z" fill="#f6f6f6"/>
<path d="M1252 1296 c1 -10 8 -17 13 -17 15 1 12 24 -3 29 -9 3 -13 -2 -10 -12z" fill="#f6f6f6"/>
<path d="M1415 1300 c-3 -5 -1 -10 4 -10 6 0 11 5 11 10 0 6 -2 10 -4 10 -3 0 -8 -4 -11 -10z" fill="#f6f6f6"/>
<path d="M1440 1299 c0 -5 5 -7 10 -4 6 3 10 8 10 11 0 2 -4 4 -10 4 -5 0 -10 -5 -10 -11z" fill="#f6f6f6"/>
<path d="M250 1285 c-9 -10 -9 -15 -1 -15 6 0 12 -10 12 -22 1 -21 2 -21 6 -3 3 11 10 23 15 26 5 3 3 11 -5 18 -11 9 -17 8 -27 -4z" fill="#f6f6f6"/>
<path d="M1564 1280 c0 -13 4 -16 10 -10 7 7 7 13 0 20 -6 6 -10 3 -10 -10z" fill="#f6f6f6"/>
<path d="M1445 1271 c-3 -6 -13 -7 -21 -4 -14 5 -14 3 -3 -15 8 -13 16 -17 20 -10 4 6 12 14 19 18 8 5 9 10 2 14 -6 3 -13 2 -17 -3z" fill="#f6f6f6"/>
<path d="M1597 1274 c-11 -12 -8 -54 4 -54 8 0 7 -5 -1 -15 -19 -23 0 -37 46 -33 36 3 39 5 40 36 2 31 0 32 -38 32 -44 0 -50 23 -7 27 22 2 22 2 4 -6 -17 -8 -15 -10 13 -10 49 -1 35 23 -14 27 -22 2 -43 0 -47 -4z m47 -70 c22 -9 20 -24 -3 -24 -21 0 -34 13 -24 24 8 7 8 7 27 0z" fill="#f6f6f6"/>
<path d="M1700 1270 c0 -5 5 -10 10 -10 6 0 10 5 10 10 0 6 -4 10 -10 10 -5 0 -10 -4 -10 -10z" fill="#f6f6f6"/>
<path d="M681 1256 c-9 -10 -9 -16 -1 -21 17 -10 37 12 24 25 -8 8 -15 6 -23 -4z" fill="#f6f6f6"/>
<path d="M1287 1263 c-10 -16 11 -39 23 -27 8 8 7 14 -4 23 -8 7 -17 8 -19 4z" fill="#f6f6f6"/>
<path d="M576 1245 c-9 -26 -7 -32 5 -12 6 10 9 21 6 23 -2 3 -7 -2 -11 -11z" fill="#f6f6f6"/>
<path d="M270 1208 c0 -4 32 -8 70 -8 39 0 70 4 70 9 0 5 -31 9 -70 8 -38 0 -70 -4 -70 -9z" fill="#f6f6f6"/>
<path d="M515 1204 c-18 -15 -19 -17 -3 -27 14 -10 15 -13 1 -34 -14 -21 -14 -23 -1 -18 12 5 15 -1 12 -26 -5 -39 5 -33 12 7 8 42 12 59 14 62 2 1 3 5 4 10 1 4 5 12 9 18 4 7 0 15 -9 18 -19 7 -15 8 -39 -10z m35 -4 c0 -5 -4 -10 -10 -10 -5 0 -10 5 -10 10 0 6 5 10 10 10 6 0 10 -4 10 -10z" fill="#f6f6f6"/>
<path d="M1410 1212 c0 -5 6 -17 14 -27 8 -11 12 -29 10 -41 -2 -13 2 -24 11 -28 8 -3 15 -10 15 -16 0 -6 -6 -8 -12 -4 -10 6 -10 5 -1 -7 9 -11 9 -19 2 -26 -8 -8 -7 -13 2 -18 8 -5 10 -4 5 3 -4 7 -2 12 4 12 7 0 10 6 7 13 -2 6 0 21 6 31 8 16 5 23 -13 38 -12 10 -17 18 -11 18 12 0 10 35 -4 47 -4 5 -5 1 -1 -7 5 -9 2 -8 -7 3 -15 18 -27 22 -27 9z m54 -88 c5 -14 4 -15 -9 -4 -17 14 -19 20 -6 20 5 0 12 -7 15 -16z" fill="#f6f6f6"/>
<path d="M646 1193 c-9 -23 12 -43 24 -23 5 8 10 21 10 28 0 18 -27 15 -34 -5z" fill="#f6f6f6"/>
<path d="M1310 1201 c0 -22 13 -39 25 -35 16 7 7 44 -11 44 -8 0 -14 -4 -14 -9z" fill="#f6f6f6"/>
<path d="M1710 1193 c0 -20 25 -34 38 -21 16 16 15 33 -1 19 -10 -8 -17 -7 -25 1 -8 8 -12 8 -12 1z" fill="#f6f6f6"/>
<path d="M240 1135 l0 -55 80 0 80 0 0 55 0 55 -80 0 -80 0 0 -55z m140 0 l0 -45 -65 0 -66 0 5 28 c2 15 5 35 5 45 1 14 11 17 61 17 l60 0 0 -45z" fill="#f6f6f6"/>
<path d="M270 1158 c0 -5 23 -8 50 -8 28 0 50 4 50 8 0 5 -22 8 -50 8 -27 -1 -50 -4 -50 -8z" fill="#f6f6f6"/>
<path d="M270 1134 c36 -8 100 -9 100 -2 0 5 -26 7 -57 7 -32 -1 -51 -3 -43 -5z" fill="#f6f6f6"/>
<path d="M264 1108 c-3 -4 21 -7 53 -7 60 1 56 5 -10 11 -21 2 -40 0 -43 -4z" fill="#f6f6f6"/>
<path d="M424 1166 c-10 -8 -16 -17 -13 -21 11 -10 59 6 59 21 0 18 -21 18 -46 0z" fill="#f6f6f6"/>
<path d="M1520 1155 c0 -28 3 -30 32 -14 21 11 21 12 3 25 -27 20 -35 17 -35 -11z" fill="#f6f6f6"/>
<path d="M486 1161 c-4 -5 -2 -12 3 -15 5 -4 12 -2 15 3 4 5 2 12 -3 15 -5 4 -12 2 -15 -3z" fill="#f6f6f6"/>
<path d="M1480 1161 c0 -6 5 -13 10 -16 6 -3 10 1 10 9 0 9 -4 16 -10 16 -5 0 -10 -4 -10 -9z" fill="#f6f6f6"/>
<path d="M625 1132 c0 -28 13 -44 27 -36 15 9 8 43 -10 53 -15 8 -18 5 -17 -17z" fill="#f6f6f6"/>
<path d="M1330 1125 c0 -16 6 -25 15 -25 9 0 15 9 15 25 0 16 -6 25 -15 25 -9 0 -15 -9 -15 -25z" fill="#f6f6f6"/>
<path d="M1600 1050 l0 -91 61 3 c50 2 64 7 73 23 6 11 16 23 21 28 6 4 5 10 -5 16 -11 8 -12 15 -3 33 19 39 23 57 13 63 -6 4 -10 -4 -10 -17 0 -13 -9 -29 -20 -36 -24 -15 -28 -54 -5 -46 19 8 19 -3 0 -22 -8 -9 -23 -13 -33 -11 -15 4 -15 5 2 6 12 1 16 6 12 17 -3 9 -6 18 -6 20 0 2 -18 4 -40 4 -23 0 -40 -5 -40 -11 0 -7 11 -9 30 -5 19 3 29 2 25 -4 -3 -6 -18 -10 -33 -11 l-27 -1 25 -8 c23 -7 23 -8 3 -9 -12 -1 -24 -7 -26 -13 -3 -7 -6 24 -6 70 l-1 82 48 -2 47 -1 -42 -4 c-42 -4 -43 -5 -43 -39 0 -32 2 -34 34 -34 45 0 91 39 81 69 -6 18 -15 21 -71 21 l-64 0 0 -90z m95 50 c9 -15 -14 -40 -36 -40 -14 0 -19 7 -19 25 0 20 5 25 24 25 14 0 28 -5 31 -10z m-38 -126 c-3 -3 -12 -4 -19 -1 -8 3 -5 6 6 6 11 1 17 -2 13 -5z" fill="#f6f6f6"/>
<path d="M1650 1085 c0 -8 7 -15 15 -15 8 0 15 4 15 9 0 5 -7 11 -15 15 -9 3 -15 0 -15 -9z" fill="#f6f6f6"/>
<path d="M433 1111 l-23 -19 25 -16 c29 -19 35 -19 59 -1 19 14 19 15 1 35 -22 25 -34 25 -62 1z m47 -22 c0 -5 -7 -9 -15 -9 -15 0 -20 12 -9 23 8 8 24 -1 24 -14z" fill="#f6f6f6"/>
<path d="M1560 1120 c0 -5 4 -10 9 -10 6 0 13 5 16 10 3 6 -1 10 -9 10 -9 0 -16 -4 -16 -10z" fill="#f6f6f6"/>
<path d="M1524 1105 c10 -8 15 -19 10 -26 -5 -9 -11 -7 -20 6 -8 10 -17 16 -20 12 -9 -9 15 -37 31 -37 7 0 19 7 26 16 11 14 10 18 -6 30 -10 8 -24 14 -29 14 -6 0 -3 -7 8 -15z" fill="#f6f6f6"/>
<path d="M627 1073 c-13 -12 -7 -43 8 -43 9 0 15 9 15 25 0 24 -10 32 -23 18z" fill="#f6f6f6"/>
<path d="M1334 1065 c-3 -8 -3 -19 1 -25 11 -18 25 -11 25 15 0 27 -17 34 -26 10z" fill="#f6f6f6"/>
<path d="M525 1051 c-3 -5 -2 -12 3 -15 5 -3 9 1 9 9 0 17 -3 19 -12 6z" fill="#f6f6f6"/>
<path d="M433 1038 c-2 -5 15 -8 38 -8 23 0 39 3 36 7 -10 9 -68 10 -74 1z" fill="#f6f6f6"/>
<path d="M1498 1033 c18 -2 45 -2 60 0 15 2 0 4 -33 4 -33 0 -45 -2 -27 -4z" fill="#f6f6f6"/>
<path d="M250 987 l0 -34 65 -1 65 -1 0 34 0 35 -65 0 -65 0 0 -33z" fill="#f6f6f6"/>
<path d="M518 1013 c6 -2 9 -10 6 -15 -4 -7 -2 -8 4 -4 18 11 14 26 -5 25 -11 0 -13 -3 -5 -6z" fill="#f6f6f6"/>
<path d="M1448 1008 c-3 -7 -4 -25 -2 -40 1 -16 -1 -28 -6 -28 -5 0 -7 -6 -4 -13 8 -21 33 -16 29 5 -2 10 -7 23 -10 28 -4 6 -2 16 4 23 5 7 6 19 2 26 -7 10 -9 10 -13 -1z" fill="#f6f6f6"/>
<path d="M630 985 c0 -14 6 -25 13 -25 20 0 25 9 20 31 -8 28 -33 24 -33 -6z" fill="#f6f6f6"/>
<path d="M1332 988 c2 -13 8 -23 13 -23 6 0 11 10 13 23 2 15 -2 22 -13 22 -11 0 -15 -7 -13 -22z" fill="#f6f6f6"/>
<path d="M1565 1000 c-3 -6 -16 -8 -28 -5 -12 3 -31 -1 -42 -9 -19 -14 -19 -15 -2 -34 16 -17 16 -20 2 -25 -8 -4 -15 -14 -15 -24 1 -15 3 -15 20 5 11 13 24 20 30 17 8 -5 4 -12 -9 -22 -12 -8 -21 -22 -21 -31 1 -13 6 -10 21 10 13 18 26 25 37 21 16 -6 16 -5 0 13 -14 16 -15 23 -5 33 6 6 12 19 12 29 0 9 6 16 13 14 8 -1 11 2 7 8 -8 13 -12 13 -20 0z m-27 -44 c3 -12 -1 -17 -10 -14 -7 3 -15 13 -16 22 -3 12 1 17 10 14 7 -3 15 -13 16 -22z" fill="#f6f6f6"/>
<path d="M440 985 c-10 -13 -10 -19 5 -35 23 -25 37 -25 61 1 18 20 18 21 -1 35 -25 18 -49 18 -65 -1z m50 -21 c0 -8 -7 -14 -15 -14 -15 0 -21 21 -9 33 10 9 24 -2 24 -19z" fill="#f6f6f6"/>
<path d="M539 948 c-1 -2 -3 -18 -3 -35 -1 -18 -6 -36 -11 -40 -4 -5 -5 -2 -1 5 4 6 3 12 -2 12 -6 0 -9 7 -8 16 0 9 -5 19 -13 22 -11 3 -12 0 -6 -14 4 -11 8 -25 8 -31 0 -7 5 -14 11 -15 6 0 16 -2 21 -3 6 -2 15 -3 21 -4 14 -1 24 -24 31 -66 5 -35 10 -40 42 -50 17 -5 22 -4 19 6 -3 8 -13 13 -23 11 -9 -2 -14 1 -11 6 3 5 -6 31 -20 56 -14 25 -27 54 -29 64 -1 9 -8 16 -14 14 -7 -1 -10 7 -7 23 4 20 1 34 -5 23z" fill="#f6f6f6"/>
<path d="M610 939 c0 -5 5 -7 10 -4 6 3 10 8 10 11 0 2 -4 4 -10 4 -5 0 -10 -5 -10 -11z" fill="#f6f6f6"/>
<path d="M1310 929 c-10 -17 -9 -23 1 -30 15 -9 42 17 36 35 -6 19 -26 17 -37 -5z" fill="#f6f6f6"/>
<path d="M1602 939 c6 -17 168 -26 168 -9 0 6 -28 10 -69 10 -38 0 -77 3 -87 7 -12 4 -15 2 -12 -8z" fill="#f6f6f6"/>
<path d="M640 932 c0 -5 6 -16 13 -27 18 -24 41 -11 27 16 -10 19 -40 27 -40 11z" fill="#f6f6f6"/>
<path d="M435 920 c-3 -5 -3 -15 1 -21 6 -11 23 6 24 24 0 10 -18 9 -25 -3z" fill="#f6f6f6"/>
<path d="M217 896 c-5 -11 1 -12 26 -5 18 4 62 7 100 6 37 -1 67 1 67 6 0 4 -42 7 -94 7 -71 0 -95 -3 -99 -14z" fill="#f6f6f6"/>
<path d="M1590 845 l0 -65 53 0 c29 0 58 5 65 12 7 7 12 36 12 65 l0 53 -65 0 -65 0 0 -65z m37 24 c-4 -15 -2 -19 9 -15 15 6 20 -9 5 -18 -13 -9 -32 19 -25 38 9 23 17 20 11 -5z m78 -1 c-4 -13 -19 -33 -34 -46 -25 -22 -25 -23 -3 -17 13 4 22 2 22 -4 0 -14 -77 -14 -85 -1 -3 6 3 10 14 10 11 0 35 18 53 40 38 46 42 48 33 18z" fill="#f6f6f6"/>
<path d="M1740 843 c-3 -40 -1 -68 3 -64 4 4 7 37 5 72 l-3 64 -5 -72z" fill="#f6f6f6"/>
<path d="M460 890 c0 -5 7 -10 16 -10 8 0 12 5 9 10 -3 6 -10 10 -16 10 -5 0 -9 -4 -9 -10z" fill="#f6f6f6"/>
<path d="M1442 888 c-8 -8 -9 -15 -1 -25 8 -9 8 -13 1 -13 -6 0 -14 5 -18 11 -12 21 -26 -19 -14 -41 12 -22 24 -27 17 -7 -2 6 10 22 27 35 30 22 30 22 5 23 -21 0 -22 1 -5 8 11 4 15 10 9 14 -5 3 -15 1 -21 -5z" fill="#f6f6f6"/>
<path d="M690 875 c-6 -8 -9 -19 -5 -25 11 -18 23 -11 21 15 -1 29 0 29 -16 10z" fill="#f6f6f6"/>
<path d="M1536 881 c-4 -7 -5 -15 -2 -18 9 -9 19 4 14 18 -4 11 -6 11 -12 0z" fill="#f6f6f6"/>
<path d="M1284 869 c-3 -6 -1 -16 5 -22 9 -9 14 -8 21 3 5 8 10 18 10 23 0 11 -28 8 -36 -4z" fill="#f6f6f6"/>
<path d="M240 860 c0 -5 5 -10 10 -10 6 0 10 5 10 10 0 6 -4 10 -10 10 -5 0 -10 -4 -10 -10z" fill="#f6f6f6"/>
<path d="M280 858 c0 -16 23 -19 37 -5 14 13 13 15 -11 14 -14 -1 -26 -5 -26 -9z" fill="#f6f6f6"/>
<path d="M349 820 c-1 -22 -1 -49 -1 -60 0 -11 0 -24 1 -30 1 -5 27 -10 59 -9 38 0 50 3 37 8 -11 5 -35 6 -52 4 -21 -3 -33 0 -33 7 0 8 16 11 50 8 35 -2 50 1 50 10 0 8 -17 12 -50 12 -40 0 -50 3 -50 17 0 13 3 14 12 5 21 -21 32 -13 12 9 -16 17 -16 22 -4 29 8 6 23 10 33 10 9 0 17 5 17 10 0 6 -18 10 -40 10 -40 0 -40 0 -41 -40z" fill="#f6f6f6"/>
<path d="M442 843 c2 -10 10 -18 18 -18 22 0 18 29 -3 33 -14 3 -18 -1 -15 -15z" fill="#f6f6f6"/>
<path d="M656 847 c3 -10 9 -15 12 -12 3 3 0 11 -7 18 -10 9 -11 8 -5 -6z" fill="#f6f6f6"/>
<path d="M502 827 c-6 -7 -12 -26 -14 -42 -3 -29 -2 -30 47 -33 27 -2 46 0 42 5 -5 4 -24 6 -43 4 -21 -1 -34 2 -34 9 0 7 7 10 15 6 10 -3 15 1 15 14 0 21 17 36 28 25 4 -4 1 -10 -5 -12 -15 -5 -18 -33 -4 -33 14 0 21 43 9 57 -13 17 -42 17 -56 0z" fill="#f6f6f6"/>
<path d="M1457 822 c-24 -26 -21 -49 7 -67 20 -13 29 -14 46 -5 25 14 24 48 -3 64 -15 9 -22 7 -38 -13 -21 -26 -27 -15 -6 13 18 25 55 17 75 -16 15 -25 15 -28 -3 -47 -22 -25 -47 -27 -81 -5 -32 22 -42 12 -15 -15 43 -43 131 -12 131 47 0 52 -79 82 -113 44z m53 -42 c0 -11 -6 -20 -13 -20 -19 0 -27 10 -20 26 8 21 33 17 33 -6z" fill="#f6f6f6"/>
<path d="M405 820 c-3 -5 -2 -10 4 -10 5 0 13 5 16 10 3 6 2 10 -4 10 -5 0 -13 -4 -16 -10z" fill="#f6f6f6"/>
<path d="M676 813 c-6 -14 -5 -15 5 -6 7 7 10 15 7 18 -3 3 -9 -2 -12 -12z" fill="#f6f6f6"/>
<path d="M716 821 c-3 -5 1 -14 8 -20 16 -13 32 2 21 19 -8 12 -22 13 -29 1z" fill="#f6f6f6"/>
<path d="M1247 824 c-9 -10 2 -24 19 -24 8 0 14 7 14 15 0 15 -21 21 -33 9z" fill="#f6f6f6"/>
<path d="M1383 808 c-13 -16 -29 -66 -18 -56 5 4 14 3 21 -3 22 -18 43 37 22 57 -12 12 -17 13 -25 2z" fill="#f6f6f6"/>
<path d="M430 795 c-8 -9 -8 -15 -2 -15 12 0 26 19 19 26 -2 2 -10 -2 -17 -11z" fill="#f6f6f6"/>
<path d="M760 775 c0 -9 5 -15 11 -13 6 2 11 8 11 13 0 5 -5 11 -11 13 -6 2 -11 -4 -11 -13z" fill="#f6f6f6"/>
<path d="M1210 774 c0 -17 22 -14 28 4 2 7 -3 12 -12 12 -9 0 -16 -7 -16 -16z" fill="#f6f6f6"/>
<path d="M726 772 c-3 -5 1 -15 8 -21 11 -10 14 -9 12 3 -3 21 -13 29 -20 18z" fill="#f6f6f6"/>
<path d="M1256 769 c2 -4 -2 -10 -8 -12 -8 -4 -9 -6 -2 -6 6 -1 17 5 23 12 8 10 7 14 -4 14 -8 0 -12 -4 -9 -8z" fill="#f6f6f6"/>
<path d="M800 756 c0 -14 29 -31 38 -22 2 3 2 12 -1 21 -8 19 -37 20 -37 1z" fill="#f6f6f6"/>
<path d="M1154 759 c-3 -6 -1 -16 4 -21 13 -13 45 8 36 23 -7 12 -31 11 -40 -2z" fill="#f6f6f6"/>
<path d="M1343 746 c6 -14 4 -17 -8 -12 -9 3 -14 2 -11 -3 3 -4 -6 -14 -19 -21 -14 -7 -25 -17 -25 -22 0 -4 -5 -8 -12 -8 -6 0 -23 -10 -36 -22 -14 -13 -22 -17 -18 -11 5 9 2 11 -8 7 -9 -3 -16 -10 -16 -16 0 -5 -4 -7 -9 -3 -5 3 -12 1 -16 -4 -3 -6 -12 -8 -21 -4 -8 3 -14 2 -13 -3 1 -5 1 -17 0 -26 -2 -28 -21 -21 -21 6 0 17 -12 34 -35 51 -48 37 -67 21 -21 -17 20 -16 44 -44 53 -61 13 -26 13 -30 1 -20 -8 7 -18 10 -21 7 -4 -4 -11 5 -17 20 -9 25 -12 26 -65 21 -36 -3 -54 -1 -50 5 3 6 25 10 48 10 31 0 38 3 27 10 -23 15 -50 12 -77 -10 -14 -11 -22 -20 -17 -20 5 0 1 -5 -9 -11 -17 -10 -17 -13 -3 -35 15 -21 15 -23 -1 -17 -11 4 -14 3 -9 -5 4 -7 14 -12 21 -12 8 0 21 -10 29 -22 17 -28 15 -142 -3 -176 -11 -20 -15 -21 -29 -10 -12 10 -14 10 -8 0 4 -6 3 -12 -3 -12 -5 0 -11 5 -13 12 -5 15 -67 16 -72 1 -3 -7 0 -15 6 -19 7 -4 8 -3 4 4 -4 7 -2 12 3 12 6 0 11 -4 11 -9 0 -10 79 -9 95 1 6 3 16 0 22 -7 10 -11 8 -14 -9 -17 -15 -2 -22 -11 -24 -35 -4 -30 -2 -33 24 -32 17 1 20 3 10 6 -10 2 -18 9 -18 14 0 5 8 9 18 10 14 0 14 2 -3 9 -16 7 -16 9 -4 9 22 1 33 32 17 44 -9 6 -6 7 7 2 11 -4 25 -8 30 -9 6 -2 18 -6 27 -10 35 -15 40 6 6 26 -32 20 -46 22 -40 5 1 -5 -2 -6 -7 -3 -5 3 -7 15 -4 26 3 11 0 20 -6 20 -6 0 -11 5 -11 11 0 5 5 7 10 4 13 -8 13 8 0 21 -26 26 55 134 94 126 11 -2 16 0 12 7 -7 11 32 7 43 -5 3 -4 -2 -4 -11 -1 -29 10 -20 -3 9 -14 23 -9 30 -7 44 12 15 20 19 21 33 10 22 -18 20 -1 -4 29 -23 29 -25 41 -7 37 6 -1 11 6 11 15 -1 10 2 15 7 12 5 -3 9 2 9 10 0 9 3 15 8 15 4 -1 10 0 15 1 4 1 13 3 20 4 6 1 11 8 10 17 -3 18 50 51 70 43 19 -7 28 8 16 26 -5 8 -9 11 -9 6 0 -5 -8 -2 -17 5 -15 12 -16 12 -10 -5z m-143 -183 c0 -5 -10 -19 -21 -33 -20 -24 -20 -24 -16 -3 4 17 1 20 -12 16 -11 -4 -10 -1 4 10 21 17 45 22 45 10z m-219 -236 c-10 -9 -11 -8 -5 6 3 10 9 15 12 12 3 -3 0 -11 -7 -18z" fill="#f6f6f6"/>
<path d="M1584 734 c0 -18 3 -21 13 -12 7 6 13 14 13 18 0 4 -6 10 -13 13 -8 3 -13 -3 -13 -19z" fill="#f6f6f6"/>
<path d="M1707 754 c-8 -8 1 -24 14 -24 5 0 9 7 9 15 0 15 -12 20 -23 9z" fill="#f6f6f6"/>
<path d="M300 741 c0 -5 7 -11 14 -14 10 -4 13 -1 9 9 -6 15 -23 19 -23 5z" fill="#f6f6f6"/>
<path d="M473 735 c0 -8 4 -12 9 -9 5 3 6 10 3 15 -9 13 -12 11 -12 -6z" fill="#f6f6f6"/>
<path d="M756 731 c-4 -5 1 -8 9 -7 21 3 31 16 12 16 -9 0 -18 -4 -21 -9z" fill="#f6f6f6"/>
<path d="M860 722 c0 -15 9 -21 33 -25 34 -5 58 7 42 22 -6 5 -25 12 -42 16 -28 6 -33 4 -33 -13z" fill="#f6f6f6"/>
<path d="M1090 731 c-14 -4 -26 -15 -28 -24 -3 -14 2 -16 30 -11 39 8 53 18 44 33 -8 12 -10 12 -46 2z" fill="#f6f6f6"/>
<path d="M496 714 c-27 -19 -13 -30 14 -11 12 8 18 17 13 20 -4 3 -17 -1 -27 -9z" fill="#f6f6f6"/>
<path d="M673 707 c6 -14 15 -23 19 -21 4 2 6 -5 5 -16 -1 -17 -16 -30 -33 -29 -4 0 -12 -10 -18 -22 -6 -12 -22 -26 -36 -31 l-24 -9 22 24 c28 29 29 64 2 72 -25 8 -40 -1 -40 -24 0 -25 10 -32 31 -20 11 6 19 6 19 0 0 -13 -27 -21 -47 -14 -16 6 -17 5 -3 -12 13 -15 13 -17 1 -14 -8 3 -19 17 -24 32 -12 38 13 77 51 77 28 0 54 -12 53 -24 -3 -18 0 -26 9 -26 6 0 10 8 10 18 0 54 -93 72 -129 26 -28 -35 -26 -69 4 -99 32 -33 78 -33 102 -2 17 24 17 24 34 4 14 -18 18 -19 47 -6 33 14 39 23 22 34 -6 3 -13 -1 -16 -9 -9 -24 -44 -20 -44 5 0 16 4 19 20 14 23 -7 28 10 5 19 -8 3 -12 11 -10 19 3 7 -6 24 -19 37 l-26 23 13 -26z" fill="#f6f6f6"/>
<path d="M962 684 c-71 -45 -94 -77 -77 -105 5 -7 3 -10 -6 -7 -8 3 -15 14 -17 25 -2 11 -15 26 -30 33 -28 12 -39 11 -34 -3 1 -5 -2 -6 -7 -2 -6 3 -7 13 -4 23 3 9 3 14 -2 10 -4 -4 -15 -2 -23 4 -8 7 -21 13 -29 14 -11 2 -12 -1 -2 -12 6 -7 15 -11 20 -9 10 7 31 -30 22 -39 -3 -3 -1 -6 5 -6 7 0 12 -7 12 -15 0 -8 5 -15 11 -15 6 0 9 -9 6 -19 -3 -13 2 -22 17 -29 11 -5 24 -9 27 -8 3 0 13 -5 21 -12 13 -10 18 -9 28 3 10 12 10 15 -1 15 -11 0 -11 2 1 10 12 8 13 13 3 30 -7 11 -13 22 -13 24 0 3 33 31 73 62 92 73 93 74 81 74 -6 0 -43 -21 -82 -46z m-62 -117 c0 -2 -12 -14 -27 -28 -15 -13 -22 -17 -15 -8 6 9 8 20 4 24 -4 5 -2 5 5 1 6 -3 14 -2 18 4 6 10 15 14 15 7z m-55 -17 c3 -5 1 -10 -4 -10 -6 0 -11 5 -11 10 0 6 2 10 4 10 3 0 8 -4 11 -10z" fill="#f6f6f6"/>
<path d="M1400 721 c0 -6 5 -13 10 -16 6 -3 10 1 10 9 0 9 -4 16 -10 16 -5 0 -10 -4 -10 -9z" fill="#f6f6f6"/>
<path d="M796 708 c3 -5 10 -6 15 -3 13 9 11 12 -6 12 -8 0 -12 -4 -9 -9z" fill="#f6f6f6"/>
<path d="M1550 708 c0 -14 -9 -18 -40 -18 -22 0 -40 -4 -40 -10 0 -15 76 -12 88 3 7 8 7 18 2 27 -8 13 -10 12 -10 -2z" fill="#f6f6f6"/>
<path d="M324 696 c-8 -8 -7 -15 0 -22 8 -8 15 -7 22 0 8 8 7 15 0 22 -8 8 -15 7 -22 0z" fill="#f6f6f6"/>
<path d="M435 691 c-8 -15 3 -31 21 -31 9 0 14 7 12 17 -4 20 -24 28 -33 14z" fill="#f6f6f6"/>
<path d="M392 658 c2 -25 8 -34 26 -36 12 -2 22 1 22 7 0 6 -7 11 -15 11 -9 0 -15 9 -15 25 0 14 -5 25 -11 25 -6 0 -9 -14 -7 -32z" fill="#f6f6f6"/>
<path d="M1320 670 c-9 -17 -7 -22 15 -30 30 -11 35 -34 5 -25 -29 9 -25 -14 4 -25 30 -11 66 -2 66 16 0 8 -4 14 -9 14 -6 0 -22 11 -37 25 -28 26 -18 34 16 13 24 -15 37 -4 20 17 -18 22 -67 19 -80 -5z" fill="#f6f6f6"/>
<path d="M1427 683 c-4 -3 -7 -30 -7 -59 l0 -53 -47 -4 c-47 -3 -47 -3 10 -5 l57 -2 0 65 c0 65 -1 71 -13 58z" fill="#f6f6f6"/>
<path d="M1563 656 c-4 -8 -24 -16 -43 -18 -30 -3 -35 -7 -38 -30 -2 -16 -8 -28 -15 -28 -8 0 -8 -3 1 -12 7 -7 13 -21 13 -32 1 -21 1 -21 6 -1 3 11 10 26 15 33 7 8 7 12 -1 12 -6 0 -11 9 -11 20 0 16 7 20 31 20 17 0 40 -5 51 -11 28 -15 58 13 42 39 -15 22 -40 27 -51 8z m40 -21 c1 -5 -6 -11 -15 -13 -11 -2 -18 3 -18 13 0 17 30 18 33 0z" fill="#f6f6f6"/>
<path d="M460 630 c0 -5 9 -10 20 -10 11 0 20 5 20 10 0 6 -9 10 -20 10 -11 0 -20 -4 -20 -10z" fill="#f6f6f6"/>
<path d="M1262 619 c-14 -23 -15 -32 -3 -24 5 3 12 -9 14 -27 l4 -33 1 33 c1 19 6 31 12 27 14 -9 12 7 -3 27 -12 15 -14 15 -25 -3z" fill="#f6f6f6"/>
<path d="M460 600 c0 -5 9 -10 20 -10 11 0 20 5 20 10 0 6 -9 10 -20 10 -11 0 -20 -4 -20 -10z" fill="#f6f6f6"/>
<path d="M415 581 c3 -22 24 -26 22 -3 0 10 -6 19 -13 19 -6 0 -11 -7 -9 -16z" fill="#f6f6f6"/>
<path d="M370 580 c0 -5 5 -10 10 -10 6 0 10 5 10 10 0 6 -4 10 -10 10 -5 0 -10 -4 -10 -10z" fill="#f6f6f6"/>
<path d="M1220 580 c0 -5 5 -10 10 -10 6 0 10 5 10 10 0 6 -4 10 -10 10 -5 0 -10 -4 -10 -10z" fill="#f6f6f6"/>
<path d="M460 570 c0 -5 14 -10 30 -10 17 0 30 5 30 10 0 6 -13 10 -30 10 -16 0 -30 -4 -30 -10z" fill="#f6f6f6"/>
<path d="M535 571 c3 -6 1 -11 -4 -11 -6 0 -10 -3 -10 -7 3 -20 -2 -27 -11 -13 -5 8 -11 12 -14 9 -3 -2 -1 -11 5 -19 8 -13 13 -11 29 9 11 13 20 18 20 12 0 -6 5 -11 10 -11 17 0 11 14 -11 28 -12 8 -18 9 -14 3z" fill="#f6f6f6"/>
<path d="M776 571 c-4 -7 -5 -15 -2 -18 9 -9 19 4 14 18 -4 11 -6 11 -12 0z" fill="#f6f6f6"/>
<path d="M1540 570 c0 -5 5 -10 10 -10 6 0 10 5 10 10 0 6 -4 10 -10 10 -5 0 -10 -4 -10 -10z" fill="#f6f6f6"/>
<path d="M656 562 c-4 -6 -12 -10 -19 -8 -7 1 -9 1 -4 -1 4 -3 4 -10 1 -16 -5 -8 -2 -8 7 1 7 6 18 12 24 12 5 0 3 -5 -5 -10 -13 -8 -13 -12 3 -27 17 -17 18 -17 11 1 -5 13 -4 17 4 12 6 -3 14 -1 18 6 4 7 3 9 -1 5 -5 -4 -14 2 -21 14 -7 14 -14 18 -18 11z" fill="#f6f6f6"/>
<path d="M693 563 c9 -2 23 -2 30 0 6 3 -1 5 -18 5 -16 0 -22 -2 -12 -5z" fill="#f6f6f6"/>
<path d="M587 549 c7 -7 15 -10 18 -7 3 3 -2 9 -12 12 -14 6 -15 5 -6 -5z" fill="#f6f6f6"/>
<path d="M1305 540 c-4 -6 22 -10 70 -10 48 0 74 4 70 10 -3 6 -35 10 -70 10 -35 0 -67 -4 -70 -10z" fill="#f6f6f6"/>
<path d="M1513 536 c3 -8 1 -17 -6 -20 -16 -6 11 -26 35 -26 12 0 15 5 11 17 -4 11 -3 14 5 9 7 -4 12 -1 12 8 0 8 -4 18 -10 21 -5 3 -10 1 -10 -6 0 -10 -3 -10 -12 -1 -17 17 -31 15 -25 -2z" fill="#f6f6f6"/>
<path d="M380 533 c-54 -20 -81 -83 -56 -132 56 -108 222 -32 176 80 -19 45 -74 69 -120 52z m70 -53 c24 -24 25 -38 4 -68 -35 -51 -120 -2 -92 52 22 41 57 47 88 16z" fill="#f6f6f6"/>
<path d="M410 470 c0 -6 -4 -9 -9 -6 -17 11 -22 -27 -5 -43 12 -12 18 -13 21 -3 3 6 9 10 13 7 14 -9 7 30 -7 44 -9 8 -13 8 -13 1z" fill="#f6f6f6"/>
<path d="M530 420 c0 -93 1 -100 20 -100 13 0 20 7 20 20 0 15 7 20 29 20 43 0 81 35 81 73 -1 56 -40 87 -109 87 l-41 0 0 -100z m91 50 c37 -20 17 -70 -28 -70 -20 0 -23 5 -23 40 0 43 13 50 51 30z" fill="#f6f6f6"/>
<path d="M605 439 c-4 -6 -5 -12 -2 -15 2 -3 7 2 10 11 7 17 1 20 -8 4z" fill="#f6f6f6"/>
<path d="M700 440 l0 -80 33 -14 c68 -28 77 -29 77 -7 0 13 -11 24 -35 32 -42 15 -46 36 -8 41 17 2 29 10 31 20 3 15 -2 17 -27 12 -27 -6 -31 -4 -31 16 0 19 4 22 35 18 31 -4 35 -1 35 19 0 21 -4 23 -55 23 l-55 0 0 -80z" fill="#f6f6f6"/>
<path d="M1340 509 c0 -6 -4 -7 -10 -4 -5 3 -10 4 -10 1 0 -3 10 -10 21 -17 13 -6 19 -7 15 -1 -3 6 -1 12 6 14 8 3 6 7 -5 11 -9 3 -17 2 -17 -4z" fill="#f6f6f6"/>
<path d="M912 465 c3 -46 3 -46 -14 -23 -29 40 -48 58 -58 58 -14 0 -13 -133 2 -148 21 -21 30 -13 26 23 -5 43 5 45 22 5 11 -27 36 -50 54 -50 3 0 6 35 6 78 0 68 -3 79 -21 90 -21 13 -21 12 -17 -33z" fill="#f6f6f6"/>
<path d="M1074 486 c-36 -16 -58 -61 -48 -100 9 -36 50 -66 90 -66 29 0 34 3 34 24 0 19 -4 22 -25 18 -30 -5 -65 21 -65 49 0 25 44 52 70 44 15 -5 20 -2 20 13 0 11 -7 23 -16 26 -21 8 -24 8 -60 -8z" fill="#f6f6f6"/>
<path d="M1209 485 c-38 -20 -52 -67 -35 -110 24 -57 90 -73 139 -35 66 52 24 162 -61 160 -9 -1 -29 -7 -43 -15z m81 -45 c24 -24 24 -29 4 -58 -19 -28 -58 -28 -78 -1 -16 23 -12 47 12 67 22 17 39 15 62 -8z" fill="#f6f6f6"/>
<path d="M1237 424 c-9 -9 4 -34 18 -34 8 0 11 8 8 20 -5 20 -15 25 -26 14z" fill="#f6f6f6"/>
<path d="M1380 409 l0 -89 54 0 c83 0 131 50 106 114 -13 36 -50 56 -109 60 l-51 4 0 -89z m94 40 c50 -23 32 -89 -25 -89 -28 0 -29 1 -29 50 0 54 8 60 54 39z" fill="#f6f6f6"/>
<path d="M1448 420 c15 -18 16 -34 0 -24 -7 4 -8 3 -4 -5 6 -9 11 -9 22 0 8 6 13 12 12 13 -2 1 -12 8 -23 16 -17 12 -18 12 -7 0z" fill="#f6f6f6"/>
<path d="M1093 417 c-3 -6 -1 -13 5 -15 7 -2 10 -8 6 -13 -3 -5 2 -9 11 -9 11 0 15 5 11 15 -3 8 0 15 6 15 15 0 1 13 -17 16 -8 1 -18 -3 -22 -9z" fill="#f6f6f6"/>
<path d="M314 355 c3 -9 6 -18 6 -21 0 -10 63 -34 90 -34 50 0 100 33 100 66 0 3 -13 -4 -29 -15 -37 -27 -96 -27 -140 0 -28 17 -33 18 -27 4z" fill="#f6f6f6"/>
<path d="M657 353 c-15 -14 -6 -25 11 -12 15 13 16 12 4 -3 -11 -14 -17 -15 -33 -5 -16 10 -23 8 -44 -14 l-25 -25 22 -1 c19 -2 20 0 8 8 -12 9 -11 9 5 4 48 -17 58 -18 50 -6 -6 10 -3 11 13 2 14 -7 23 -8 27 -1 3 5 11 10 16 10 6 0 8 -4 5 -9 -4 -5 5 -8 19 -6 14 1 28 -2 31 -7 3 -4 10 -5 16 -2 8 5 9 1 4 -11 -5 -15 -4 -16 9 -5 15 13 21 35 7 26 -5 -3 -20 1 -35 9 -14 7 -28 11 -31 7 -3 -3 -6 1 -6 8 0 7 -3 10 -7 7 -3 -4 -12 2 -20 13 -14 20 -34 26 -46 13z" fill="#f6f6f6"/>
<path d="M1174 328 c3 -10 1 -18 -4 -18 -6 0 -10 -8 -9 -17 0 -11 3 -13 6 -6 3 8 15 11 31 7 22 -4 24 -3 10 6 -10 6 -22 18 -28 28 -11 16 -11 16 -6 0z" fill="#f6f6f6"/>
<path d="M1333 327 c-4 -8 -17 -19 -28 -26 -12 -8 -14 -11 -4 -8 9 3 22 0 28 -6 8 -8 11 -8 11 2 0 9 8 11 23 8 22 -6 22 -6 2 9 -11 9 -19 20 -17 25 3 14 -6 11 -15 -4z" fill="#f6f6f6"/>
<path d="M1236 288 c3 -5 10 -6 15 -3 13 9 11 12 -6 12 -8 0 -12 -4 -9 -9z" fill="#f6f6f6"/>
<path d="M613 282 c-8 -5 -6 -16 7 -41 l18 -35 16 33 c10 18 15 35 13 38 -3 2 -11 -5 -17 -18 -11 -20 -13 -20 -22 -6 -5 10 -6 22 -3 27 7 12 4 12 -12 2z" fill="#f6f6f6"/>
<path d="M1086 275 c-11 -8 -15 -15 -9 -15 6 0 16 7 23 15 16 19 11 19 -14 0z" fill="#f6f6f6"/>
<path d="M480 246 c0 -30 4 -36 20 -36 40 0 36 60 -4 68 -12 3 -16 -4 -16 -32z m35 -6 c0 -7 -6 -15 -12 -17 -8 -3 -13 4 -13 17 0 13 5 20 13 18 6 -3 12 -11 12 -18z" fill="#f6f6f6"/>
<path d="M687 273 c-4 -3 -7 -19 -7 -35 0 -24 4 -28 28 -27 16 1 20 3 10 6 -10 2 -18 9 -18 14 0 5 8 9 18 10 14 0 14 2 -3 9 -17 7 -17 9 -2 9 9 1 17 6 17 11 0 11 -33 14 -43 3z" fill="#f6f6f6"/>
<path d="M752 248 c-2 -34 1 -38 21 -37 15 1 17 3 5 6 -10 2 -18 17 -21 36 -4 31 -4 31 -5 -5z" fill="#f6f6f6"/>
<path d="M810 265 c-27 -33 17 -74 48 -43 16 16 15 23 -4 42 -19 20 -28 20 -44 1z m38 -22 c-4 -22 -22 -20 -26 1 -2 10 3 16 13 16 10 0 15 -7 13 -17z" fill="#f6f6f6"/>
<path d="M887 273 c-8 -8 -9 -63 -2 -63 3 0 15 9 27 20 17 16 19 22 8 35 -14 16 -23 19 -33 8z m28 -23 c-3 -5 -10 -10 -16 -10 -5 0 -9 5 -9 10 0 6 7 10 16 10 8 0 12 -4 9 -10z" fill="#f6f6f6"/>
<path d="M1111 266 c-10 -12 -8 -17 9 -26 12 -6 19 -14 17 -17 -3 -2 -19 3 -35 11 -26 13 -30 13 -28 1 1 -8 6 -18 11 -22 4 -4 5 -2 1 5 -4 6 -2 12 3 12 6 0 11 -4 11 -10 0 -14 37 -13 46 2 4 6 -1 17 -11 25 -17 12 -18 13 -1 13 9 0 14 5 11 10 -9 14 -21 12 -34 -4z" fill="#f6f6f6"/>
<path d="M1170 259 c-13 -24 2 -49 31 -49 22 0 35 36 19 55 -17 21 -37 19 -50 -6z m38 -16 c-4 -22 -22 -20 -26 1 -2 10 3 16 13 16 10 0 15 -7 13 -17z" fill="#f6f6f6"/>
<path d="M1250 265 c-16 -19 -3 -55 21 -55 10 0 19 5 19 11 0 5 -5 7 -11 3 -12 -7 -31 15 -23 28 3 4 15 8 27 8 18 0 19 2 7 10 -20 13 -26 12 -40 -5z" fill="#f6f6f6"/>
<path d="M1310 247 c0 -20 3 -37 8 -37 9 0 8 57 -1 67 -4 3 -7 -10 -7 -30z" fill="#f6f6f6"/>
<path d="M1340 245 c0 -32 3 -35 28 -34 16 1 20 3 10 6 -10 2 -18 9 -18 14 0 5 8 9 18 10 14 0 14 2 -3 9 -17 7 -17 9 -2 9 27 1 20 21 -8 21 -22 0 -25 -4 -25 -35z" fill="#f6f6f6"/>
<path d="M1400 270 c0 -5 4 -10 9 -10 5 0 12 -12 14 -27 l4 -28 2 28 c0 15 6 27 11 27 6 0 10 5 10 10 0 6 -11 10 -25 10 -14 0 -25 -4 -25 -10z" fill="#f6f6f6"/>
<path d="M1135 190 c-3 -6 1 -7 9 -4 18 7 21 14 7 14 -6 0 -13 -4 -16 -10z" fill="#f6f6f6"/>
<path d="M1490 190 c0 -5 5 -10 10 -10 6 0 10 5 10 10 0 6 -4 10 -10 10 -5 0 -10 -4 -10 -10z" fill="#f6f6f6"/>
</g>
</svg>